<mxfile host="65bd71144e">
    <diagram id="CGz5gvUMxi6If3MVP1VV" name="image">
        <mxGraphModel dx="-2027" dy="1828" grid="1" gridSize="10" guides="1" tooltips="1" connect="1" arrows="1" fold="1" page="1" pageScale="1" pageWidth="827" pageHeight="1169" math="0" shadow="0">
            <root>
                <mxCell id="0"/>
                <mxCell id="1" parent="0"/>
                <mxCell id="mNiAzSfXenX0VxuWbp-_-2" value="" style="rounded=0;whiteSpace=wrap;html=1;fillColor=#dae8fc;strokeColor=#6c8ebf;shadow=0;" parent="1" vertex="1">
                    <mxGeometry x="2630" y="-930" width="470" height="180" as="geometry"/>
                </mxCell>
                <mxCell id="3" value="Template&lt;br&gt;Handler" style="rounded=1;whiteSpace=wrap;html=1;fontSize=14;strokeColor=#d6b656;fillColor=#fff2cc;" parent="1" vertex="1">
                    <mxGeometry x="3000" y="-920" width="80" height="160" as="geometry"/>
                </mxCell>
                <mxCell id="5" value="middleware" style="rounded=1;whiteSpace=wrap;html=1;fontSize=14;strokeColor=#6c8ebf;fillColor=default;" parent="1" vertex="1">
                    <mxGeometry x="2640" y="-920" width="80" height="160" as="geometry"/>
                </mxCell>
                <mxCell id="7" value="..." style="rounded=1;whiteSpace=wrap;html=1;fontSize=14;strokeColor=#6c8ebf;fillColor=default;" parent="1" vertex="1">
                    <mxGeometry x="2730" y="-920" width="30" height="160" as="geometry"/>
                </mxCell>
                <mxCell id="8" value="..." style="rounded=1;whiteSpace=wrap;html=1;fontSize=14;strokeColor=#6c8ebf;fillColor=default;" parent="1" vertex="1">
                    <mxGeometry x="2770" y="-920" width="30" height="160" as="geometry"/>
                </mxCell>
                <mxCell id="9" value="middleware" style="rounded=1;whiteSpace=wrap;html=1;fontSize=14;strokeColor=#6c8ebf;fillColor=default;" parent="1" vertex="1">
                    <mxGeometry x="2895" y="-920" width="80" height="160" as="geometry"/>
                </mxCell>
                <mxCell id="10" value="..." style="rounded=1;whiteSpace=wrap;html=1;fontSize=14;strokeColor=#6c8ebf;fillColor=default;" parent="1" vertex="1">
                    <mxGeometry x="2855" y="-920" width="30" height="160" as="geometry"/>
                </mxCell>
                <mxCell id="11" value="..." style="rounded=1;whiteSpace=wrap;html=1;fontSize=14;strokeColor=#6c8ebf;fillColor=default;" parent="1" vertex="1">
                    <mxGeometry x="2815" y="-920" width="30" height="160" as="geometry"/>
                </mxCell>
                <mxCell id="16" value="" style="shape=flexArrow;endArrow=classic;html=1;" parent="1" edge="1">
                    <mxGeometry width="50" height="50" relative="1" as="geometry">
                        <mxPoint x="2560" y="-870" as="sourcePoint"/>
                        <mxPoint x="2620" y="-870" as="targetPoint"/>
                    </mxGeometry>
                </mxCell>
                <mxCell id="17" value="Request" style="text;html=1;strokeColor=none;fillColor=none;align=center;verticalAlign=middle;whiteSpace=wrap;rounded=0;" parent="1" vertex="1">
                    <mxGeometry x="2560" y="-910" width="60" height="20" as="geometry"/>
                </mxCell>
                <mxCell id="18" value="" style="shape=flexArrow;endArrow=classic;html=1;" parent="1" edge="1">
                    <mxGeometry width="50" height="50" relative="1" as="geometry">
                        <mxPoint x="2620" y="-810" as="sourcePoint"/>
                        <mxPoint x="2560" y="-810" as="targetPoint"/>
                    </mxGeometry>
                </mxCell>
                <mxCell id="19" value="Response" style="text;html=1;strokeColor=none;fillColor=none;align=center;verticalAlign=middle;whiteSpace=wrap;rounded=0;" parent="1" vertex="1">
                    <mxGeometry x="2560" y="-790" width="60" height="20" as="geometry"/>
                </mxCell>
                <mxCell id="24" value="" style="shape=flexArrow;endArrow=classic;html=1;fillColor=#f5f5f5;strokeColor=#666666;" parent="1" edge="1">
                    <mxGeometry width="50" height="50" relative="1" as="geometry">
                        <mxPoint x="2690" y="-880" as="sourcePoint"/>
                        <mxPoint x="3000" y="-880" as="targetPoint"/>
                    </mxGeometry>
                </mxCell>
                <mxCell id="27" value="" style="shape=flexArrow;endArrow=classic;html=1;fillColor=#f5f5f5;strokeColor=#666666;" parent="1" edge="1">
                    <mxGeometry width="50" height="50" relative="1" as="geometry">
                        <mxPoint x="3000" y="-800" as="sourcePoint"/>
                        <mxPoint x="2690" y="-800" as="targetPoint"/>
                    </mxGeometry>
                </mxCell>
                <mxCell id="38" value="" style="shape=flexArrow;endArrow=classic;html=1;edgeStyle=orthogonalEdgeStyle;fillColor=#ffe6cc;strokeColor=#d79b00;width=7.8048780487804885;endSize=3.921951219512195;endWidth=12.290303390838787;" parent="1" edge="1" source="43">
                    <mxGeometry width="50" height="50" relative="1" as="geometry">
                        <mxPoint x="3050" y="-799.98" as="sourcePoint"/>
                        <mxPoint x="3000" y="-799.98" as="targetPoint"/>
                        <Array as="points"/>
                    </mxGeometry>
                </mxCell>
                <mxCell id="41" value="Pre-defined template" style="text;html=1;align=center;verticalAlign=middle;whiteSpace=wrap;rounded=0;fillColor=default;" parent="1" vertex="1">
                    <mxGeometry x="3040" y="-760" width="65" height="30" as="geometry"/>
                </mxCell>
                <mxCell id="43" value="" style="sketch=0;pointerEvents=1;shadow=0;dashed=0;html=1;strokeColor=none;fillColor=#505050;labelPosition=center;verticalLabelPosition=bottom;verticalAlign=top;outlineConnect=0;align=center;shape=mxgraph.office.concepts.document;" vertex="1" parent="1">
                    <mxGeometry x="3040" y="-817" width="40" height="47" as="geometry"/>
                </mxCell>
                <mxCell id="49" value="- json body&lt;br&gt;-&amp;nbsp;query body&lt;br&gt;- url query&lt;br&gt;can be embedded to the template." style="rounded=0;whiteSpace=wrap;html=1;fillColor=default;align=left;" vertex="1" parent="1">
                    <mxGeometry x="3090" y="-910" width="110" height="80" as="geometry"/>
                </mxCell>
                <mxCell id="51" value="" style="endArrow=classic;html=1;exitX=0;exitY=0.25;exitDx=0;exitDy=0;" edge="1" parent="1" source="3" target="43">
                    <mxGeometry width="50" height="50" relative="1" as="geometry">
                        <mxPoint x="3120" y="-750" as="sourcePoint"/>
                        <mxPoint x="3170" y="-800" as="targetPoint"/>
                        <Array as="points">
                            <mxPoint x="3090" y="-860"/>
                        </Array>
                    </mxGeometry>
                </mxCell>
                <mxCell id="53" value="Accept: application/json" style="rounded=0;whiteSpace=wrap;html=1;fillColor=#d5e8d4;strokeColor=#82b366;" vertex="1" parent="1">
                    <mxGeometry x="2750" y="-910" width="130" height="20" as="geometry"/>
                </mxCell>
                <mxCell id="54" value="Content-Type: application/json" style="rounded=0;whiteSpace=wrap;html=1;fillColor=#d5e8d4;strokeColor=#82b366;" vertex="1" parent="1">
                    <mxGeometry x="2740" y="-790" width="170" height="20" as="geometry"/>
                </mxCell>
                <mxCell id="55" value="In this case, application/json content will be returnede if the json template was defined." style="text;html=1;strokeColor=none;fillColor=none;align=center;verticalAlign=middle;whiteSpace=wrap;rounded=0;" vertex="1" parent="1">
                    <mxGeometry x="2860" y="-750" width="150" height="60" as="geometry"/>
                </mxCell>
            </root>
        </mxGraphModel>
    </diagram>
</mxfile>